<svg width="29" height="29" viewBox="0 0 29 29" fill="none" xmlns="http://www.w3.org/2000/svg">
<g clip-path="url(#clip0_189_302)">
<path d="M14.5001 1.5105C11.931 1.5105 9.41959 2.27232 7.28346 3.69964C5.14734 5.12695 3.48243 7.15565 2.49928 9.52918C1.51613 11.9027 1.25889 14.5145 1.7601 17.0342C2.2613 19.554 3.49844 21.8685 5.31506 23.6851C7.13169 25.5017 9.44621 26.7389 11.9659 27.2401C14.4857 27.7413 17.0975 27.484 19.471 26.5009C21.8445 25.5177 23.8732 23.8528 25.3005 21.7167C26.7278 19.5806 27.4897 17.0692 27.4897 14.5001C27.4881 11.0555 26.119 7.7525 23.6833 5.31683C21.2477 2.88115 17.9446 1.5121 14.5001 1.5105ZM14.5001 8.26508L16.669 12.2163L21.007 13.1286L17.9861 16.4576L18.4815 20.9647L14.5001 19.0676L10.4643 20.9405L10.9899 16.4395L7.96905 13.0924L12.319 12.2103L14.5001 8.26508Z" stroke="black" stroke-width="1.83" stroke-linecap="round" stroke-linejoin="round"/>
</g>
<defs>
<clipPath id="clip0_189_302">
<rect width="29" height="29" fill="white"/>
</clipPath>
</defs>
</svg>
