<svg width="33" height="30" viewBox="0 0 33 30" fill="none" xmlns="http://www.w3.org/2000/svg">
<path d="M14.625 8.37484C14.625 8.18698 14.6974 8.00681 14.8264 7.87397C14.9553 7.74113 15.1302 7.6665 15.3125 7.6665H20.8125C20.9948 7.6665 21.1697 7.74113 21.2986 7.87397C21.4276 8.00681 21.5 8.18698 21.5 8.37484C21.5 8.5627 21.4276 8.74287 21.2986 8.8757C21.1697 9.00854 20.9948 9.08317 20.8125 9.08317H15.3125C15.1302 9.08317 14.9553 9.00854 14.8264 8.8757C14.6974 8.74287 14.625 8.5627 14.625 8.37484ZM15.3125 10.4998C15.1302 10.4998 14.9553 10.5745 14.8264 10.7073C14.6974 10.8401 14.625 11.0203 14.625 11.2082C14.625 11.396 14.6974 11.5762 14.8264 11.709C14.9553 11.8419 15.1302 11.9165 15.3125 11.9165H20.8125C20.9948 11.9165 21.1697 11.8419 21.2986 11.709C21.4276 11.5762 21.5 11.396 21.5 11.2082C21.5 11.0203 21.4276 10.8401 21.2986 10.7073C21.1697 10.5745 20.9948 10.4998 20.8125 10.4998H15.3125ZM14.625 17.5832C14.625 17.3953 14.6974 17.2151 14.8264 17.0823C14.9553 16.9495 15.1302 16.8748 15.3125 16.8748H20.8125C20.9948 16.8748 21.1697 16.9495 21.2986 17.0823C21.4276 17.2151 21.5 17.3953 21.5 17.5832C21.5 17.771 21.4276 17.9512 21.2986 18.084C21.1697 18.2169 20.9948 18.2915 20.8125 18.2915H15.3125C15.1302 18.2915 14.9553 18.2169 14.8264 18.084C14.6974 17.9512 14.625 17.771 14.625 17.5832ZM15.3125 19.7082C15.1302 19.7082 14.9553 19.7828 14.8264 19.9156C14.6974 20.0485 14.625 20.2286 14.625 20.4165C14.625 20.6044 14.6974 20.7845 14.8264 20.9174C14.9553 21.0502 15.1302 21.1248 15.3125 21.1248H20.8125C20.9948 21.1248 21.1697 21.0502 21.2986 20.9174C21.4276 20.7845 21.5 20.6044 21.5 20.4165C21.5 20.2286 21.4276 20.0485 21.2986 19.9156C21.1697 19.7828 20.9948 19.7082 20.8125 19.7082H15.3125Z" fill="black"/>
<path fill-rule="evenodd" clip-rule="evenodd" d="M7.75 16.8753C7.75 16.6875 7.82243 16.5073 7.95136 16.3745C8.0803 16.2416 8.25516 16.167 8.4375 16.167H11.875C12.0573 16.167 12.2322 16.2416 12.3611 16.3745C12.4901 16.5073 12.5625 16.6875 12.5625 16.8753V20.417C12.5625 20.6049 12.4901 20.785 12.3611 20.9179C12.2322 21.0507 12.0573 21.1253 11.875 21.1253H8.4375C8.25516 21.1253 8.0803 21.0507 7.95136 20.9179C7.82243 20.785 7.75 20.6049 7.75 20.417V16.8753ZM9.125 17.5837V19.7087H11.1875V17.5837H9.125Z" fill="black"/>
<path d="M13.0487 8.87596C13.1739 8.74236 13.2432 8.56344 13.2416 8.37772C13.2401 8.19199 13.1678 8.01433 13.0403 7.883C12.9128 7.75167 12.7404 7.67718 12.5601 7.67556C12.3799 7.67395 12.2062 7.74535 12.0765 7.87437L9.8126 10.2069L8.92366 9.29104C8.79399 9.16201 8.62033 9.09062 8.44007 9.09223C8.25981 9.09384 8.08738 9.16834 7.95991 9.29967C7.83244 9.431 7.76014 9.60866 7.75857 9.79438C7.757 9.98011 7.8263 10.159 7.95153 10.2926L9.8126 12.2101L13.0487 8.87596Z" fill="black"/>
<path fill-rule="evenodd" clip-rule="evenodd" d="M7.75 2C7.02065 2 6.32118 2.29851 5.80546 2.82986C5.28973 3.36122 5 4.08189 5 4.83333V24.6667C5 25.4181 5.28973 26.1388 5.80546 26.6701C6.32118 27.2015 7.02065 27.5 7.75 27.5H21.5C22.2293 27.5 22.9288 27.2015 23.4445 26.6701C23.9603 26.1388 24.25 25.4181 24.25 24.6667V4.83333C24.25 4.08189 23.9603 3.36122 23.4445 2.82986C22.9288 2.29851 22.2293 2 21.5 2H7.75ZM6.375 4.83333C6.375 4.45761 6.51987 4.09728 6.77773 3.8316C7.03559 3.56592 7.38533 3.41667 7.75 3.41667H21.5C21.8647 3.41667 22.2144 3.56592 22.4723 3.8316C22.7301 4.09728 22.875 4.45761 22.875 4.83333V24.6667C22.875 25.0424 22.7301 25.4027 22.4723 25.6684C22.2144 25.9341 21.8647 26.0833 21.5 26.0833H7.75C7.38533 26.0833 7.03559 25.9341 6.77773 25.6684C6.51987 25.4027 6.375 25.0424 6.375 24.6667V4.83333ZM25.625 9.08333C25.625 8.51975 25.8423 7.97925 26.2291 7.58073C26.6159 7.18222 27.1405 6.95833 27.6875 6.95833C28.2345 6.95833 28.7591 7.18222 29.1459 7.58073C29.5327 7.97925 29.75 8.51975 29.75 9.08333V23.4646L27.6875 26.6521L25.625 23.4646V9.08333ZM27.6875 8.375C27.5052 8.375 27.3303 8.44963 27.2014 8.58247C27.0724 8.7153 27 8.89547 27 9.08333V10.5H28.375V9.08333C28.375 8.89547 28.3026 8.7153 28.1736 8.58247C28.0447 8.44963 27.8698 8.375 27.6875 8.375ZM27.6875 24.0979L27 23.0354V11.9167H28.375V23.0354L27.6875 24.0979Z" fill="black"/>
</svg>
