<svg width="29" height="29" viewBox="0 0 29 29" fill="none" xmlns="http://www.w3.org/2000/svg">
<path d="M14.5 1.30273C14.2904 1.30273 14.0809 1.3084 13.8713 1.31803L13.9166 2.33643C14.1092 2.32736 14.3018 2.32227 14.5 2.32227C21.2289 2.32227 26.6777 7.77109 26.6777 14.5C26.6777 21.2289 21.2289 26.6777 14.5 26.6777C9.425 26.6777 5.07783 23.5795 3.24834 19.1672L4.81332 18.6971L2.07021 16.7543L0.991211 19.8412L2.26846 19.4617C4.22992 24.2875 8.97188 27.6973 14.5 27.6973C21.784 27.6973 27.6973 21.784 27.6973 14.5C27.6973 7.21602 21.784 1.30273 14.5 1.30273ZM12.7555 1.41828C12.0021 1.5174 11.2771 1.67883 10.5691 1.89859L10.8863 2.86658C11.532 2.66607 12.2061 2.51824 12.8914 2.42762L12.7555 1.41828ZM9.52695 2.27469C8.82461 2.56072 8.15625 2.90453 7.52188 3.30102L8.05996 4.16252C8.64336 3.79775 9.26074 3.48113 9.90644 3.21832L9.52695 2.27469ZM6.59297 3.93652C5.99836 4.38223 5.44227 4.87712 4.93057 5.41598L5.66973 6.11152C6.13984 5.61479 6.65527 5.15939 7.19902 4.74875L6.92715 4.37662L6.59297 3.93652ZM10.5295 4.4225L10.2803 5.41031L22.5713 8.55273L22.8205 7.56719L10.5295 4.4225ZM4.19537 6.25879C3.73148 6.83652 3.31518 7.45957 2.95268 8.11094L3.8391 8.60938C4.17385 8.00332 4.55787 7.43125 4.98664 6.89316L4.19537 6.25879ZM11.4244 6.75723C11.2035 8.22988 11.583 9.88379 12.2287 11.2432C12.5912 12.0021 13.033 12.6705 13.4691 13.1576C13.707 13.4238 13.9449 13.6277 14.1602 13.775L13.8543 14.9758C13.5938 14.9984 13.2879 15.0664 12.948 15.1854C12.3307 15.4006 11.6227 15.7744 10.943 16.2672C9.71953 17.1508 8.59805 18.4139 8.08828 19.8129L17.5756 22.2428C17.7965 20.7701 17.417 19.1162 16.7713 17.7568C16.4088 16.9979 15.967 16.3295 15.5309 15.8424C15.293 15.5762 15.0551 15.3723 14.8398 15.225L15.1457 14.0242C15.4006 13.9959 15.7121 13.9336 16.052 13.8146C16.6693 13.5994 17.3773 13.2256 18.057 12.7328C19.2805 11.8492 20.402 10.5861 20.9117 9.18711L11.4244 6.75723ZM2.44914 9.11348C2.14725 9.79316 1.89973 10.4955 1.71281 11.2262L2.70289 11.4641C2.87451 10.7957 3.10164 10.15 3.37975 9.52695L2.44914 9.11348ZM1.48398 12.3193C1.36561 13.0273 1.30273 13.758 1.30273 14.5V14.551L2.32227 14.5396V14.5C2.32227 13.8146 2.38004 13.1406 2.48936 12.4836L1.48398 12.3193ZM6.42871 20.4473L6.17949 21.4328L18.4705 24.5764L18.7197 23.5908L6.42871 20.4473Z" fill="black"/>
</svg>
