<svg width="29" height="29" viewBox="0 0 29 29" fill="none" xmlns="http://www.w3.org/2000/svg">
<path d="M14.5001 7.05054L14.2164 7.13663L2.88831 10.932L0.312744 11.7812L1.81259 12.2615V20.1912C1.27156 20.5056 0.906338 21.0793 0.906338 21.7499C0.906338 22.2306 1.0973 22.6916 1.43721 23.0315C1.77712 23.3715 2.23813 23.5624 2.71884 23.5624C3.19954 23.5624 3.66056 23.3715 4.00047 23.0315C4.34038 22.6916 4.53134 22.2306 4.53134 21.7499C4.53134 21.0793 4.16612 20.5056 3.62509 20.1912V12.8868L5.43759 13.4804V18.1249C5.43759 18.868 5.89071 19.4843 6.42903 19.9102C6.96734 20.3334 7.63615 20.6325 8.43909 20.9008C10.0468 21.4354 12.1656 21.7499 14.5001 21.7499C16.8346 21.7499 18.9534 21.4364 20.5611 20.8999C21.364 20.6325 22.0328 20.3334 22.5711 19.9093C23.1095 19.4843 23.5626 18.868 23.5626 18.1249V13.4804L26.1119 12.6303L28.6874 11.7812L26.111 10.9311L14.7828 7.13663L14.5001 7.05054ZM14.5001 8.94913L22.9962 11.7812L14.5001 14.6132L6.00399 11.7812L14.5001 8.94913ZM7.25009 14.1039L14.2173 16.4257L14.5001 16.5109L14.7837 16.4248L21.7501 14.103V18.1249C21.7501 18.134 21.7537 18.2391 21.4664 18.4648C21.1801 18.6913 20.6662 18.9768 19.9938 19.2015C18.6507 19.6483 16.6706 19.9374 14.5001 19.9374C12.3296 19.9374 10.3495 19.6492 9.00549 19.2006C8.33487 18.9768 7.82012 18.6904 7.53374 18.4648C7.24556 18.2382 7.25009 18.134 7.25009 18.1249V14.1039Z" fill="black"/>
</svg>
