<svg width="29" height="29" viewBox="0 0 29 29" fill="none" xmlns="http://www.w3.org/2000/svg">
<path d="M15.8594 20.3906C15.8594 20.6595 15.7797 20.9223 15.6303 21.1459C15.4809 21.3694 15.2686 21.5436 15.0202 21.6465C14.7718 21.7494 14.4985 21.7763 14.2348 21.7239C13.9711 21.6714 13.7289 21.542 13.5388 21.3518C13.3487 21.1617 13.2192 20.9195 13.1668 20.6558C13.1143 20.3921 13.1412 20.1188 13.2441 19.8704C13.347 19.622 13.5212 19.4097 13.7448 19.2603C13.9683 19.111 14.2311 19.0312 14.5 19.0312C14.8605 19.0312 15.2063 19.1745 15.4612 19.4294C15.7162 19.6843 15.8594 20.0301 15.8594 20.3906ZM14.5 8.15625C12.001 8.15625 9.96876 9.98574 9.96876 12.2344V12.6875C9.96876 12.9279 10.0642 13.1584 10.2342 13.3283C10.4041 13.4983 10.6347 13.5938 10.875 13.5938C11.1154 13.5938 11.3459 13.4983 11.5158 13.3283C11.6858 13.1584 11.7813 12.9279 11.7813 12.6875V12.2344C11.7813 10.9883 13.0013 9.96875 14.5 9.96875C15.9987 9.96875 17.2188 10.9883 17.2188 12.2344C17.2188 13.4805 15.9987 14.5 14.5 14.5C14.2597 14.5 14.0291 14.5955 13.8592 14.7654C13.6892 14.9354 13.5938 15.1659 13.5938 15.4062V16.3125C13.5938 16.5529 13.6892 16.7834 13.8592 16.9533C14.0291 17.1233 14.2597 17.2188 14.5 17.2188C14.7404 17.2188 14.9709 17.1233 15.1408 16.9533C15.3108 16.7834 15.4063 16.5529 15.4063 16.3125V16.2309C17.4725 15.8514 19.0313 14.2032 19.0313 12.2344C19.0313 9.98574 16.999 8.15625 14.5 8.15625ZM26.2813 14.5C26.2813 16.8301 25.5903 19.1079 24.2958 21.0453C23.0012 22.9827 21.1612 24.4928 19.0085 25.3845C16.8558 26.2762 14.4869 26.5095 12.2016 26.0549C9.91626 25.6003 7.81704 24.4782 6.1694 22.8306C4.52177 21.183 3.39971 19.0837 2.94513 16.7984C2.49055 14.5131 2.72385 12.1443 3.61555 9.99151C4.50724 7.83877 6.01728 5.99879 7.95469 4.70425C9.89211 3.40971 12.1699 2.71875 14.5 2.71875C17.6236 2.72205 20.6183 3.96434 22.827 6.17304C25.0357 8.38174 26.278 11.3764 26.2813 14.5ZM24.4688 14.5C24.4688 12.5284 23.8841 10.601 22.7887 8.96166C21.6933 7.32231 20.1364 6.04459 18.3149 5.29008C16.4933 4.53556 14.4889 4.33815 12.5552 4.7228C10.6215 5.10744 8.84519 6.05687 7.45103 7.45103C6.05688 8.84518 5.10745 10.6214 4.7228 12.5552C4.33816 14.4889 4.53557 16.4933 5.29008 18.3149C6.04459 20.1364 7.32231 21.6933 8.96166 22.7887C10.601 23.8841 12.5284 24.4688 14.5 24.4688C17.143 24.4658 19.6768 23.4145 21.5457 21.5457C23.4145 19.6768 24.4658 17.143 24.4688 14.5Z" fill="black"/>
</svg>
