<svg width="25" height="30" viewBox="0 0 25 30" fill="none" xmlns="http://www.w3.org/2000/svg">
<g clip-path="url(#clip0_189_297)">
<path d="M7.09125 0C7.32331 0 7.54587 0.110625 7.70997 0.307538C7.87406 0.504451 7.96625 0.771523 7.96625 1.05V3.0135H17.3625V1.0635C17.3625 0.785023 17.4547 0.517951 17.6188 0.321038C17.7829 0.124125 18.0054 0.0135 18.2375 0.0135C18.4696 0.0135 18.6921 0.124125 18.8562 0.321038C19.0203 0.517951 19.1125 0.785023 19.1125 1.0635V3.0135H22.5C23.1628 3.0135 23.7985 3.32936 24.2673 3.89165C24.7361 4.45393 24.9997 5.21661 25 6.012V27.0015C24.9997 27.7969 24.7361 28.5596 24.2673 29.1219C23.7985 29.6841 23.1628 30 22.5 30H2.5C1.83718 30 1.20148 29.6841 0.732675 29.1219C0.26387 28.5596 0.000331412 27.7969 0 27.0015L0 6.012C0.000331412 5.21661 0.26387 4.45393 0.732675 3.89165C1.20148 3.32936 1.83718 3.0135 2.5 3.0135H6.21625V1.0485C6.21658 0.770283 6.30891 0.503596 6.47297 0.307007C6.63703 0.110418 6.8594 -2.83895e-07 7.09125 0ZM1.75 11.613V27.0015C1.75 27.1197 1.7694 27.2367 1.80709 27.3459C1.84478 27.4551 1.90003 27.5543 1.96967 27.6379C2.03931 27.7215 2.12199 27.7878 2.21299 27.833C2.30398 27.8782 2.40151 27.9015 2.5 27.9015H22.5C22.5985 27.9015 22.696 27.8782 22.787 27.833C22.878 27.7878 22.9607 27.7215 23.0303 27.6379C23.1 27.5543 23.1552 27.4551 23.1929 27.3459C23.2306 27.2367 23.25 27.1197 23.25 27.0015V11.634L1.75 11.613ZM8.33375 21.9285V24.4275H6.25V21.9285H8.33375ZM13.5413 21.9285V24.4275H11.4587V21.9285H13.5413ZM18.75 21.9285V24.4275H16.6663V21.9285H18.75ZM8.33375 15.963V18.462H6.25V15.963H8.33375ZM13.5413 15.963V18.462H11.4587V15.963H13.5413ZM18.75 15.963V18.462H16.6663V15.963H18.75ZM6.21625 5.112H2.5C2.40151 5.112 2.30398 5.13528 2.21299 5.18051C2.12199 5.22574 2.03931 5.29203 1.96967 5.3756C1.90003 5.45918 1.84478 5.55839 1.80709 5.66758C1.7694 5.77678 1.75 5.89381 1.75 6.012V9.5145L23.25 9.5355V6.012C23.25 5.89381 23.2306 5.77678 23.1929 5.66758C23.1552 5.55839 23.1 5.45918 23.0303 5.3756C22.9607 5.29203 22.878 5.22574 22.787 5.18051C22.696 5.13528 22.5985 5.112 22.5 5.112H19.1125V6.5055C19.1125 6.78398 19.0203 7.05105 18.8562 7.24796C18.6921 7.44488 18.4696 7.5555 18.2375 7.5555C18.0054 7.5555 17.7829 7.44488 17.6188 7.24796C17.4547 7.05105 17.3625 6.78398 17.3625 6.5055V5.112H7.96625V6.492C7.96625 6.77048 7.87406 7.03755 7.70997 7.23446C7.54587 7.43138 7.32331 7.542 7.09125 7.542C6.85919 7.542 6.63663 7.43138 6.47253 7.23446C6.30844 7.03755 6.21625 6.77048 6.21625 6.492V5.112Z" fill="black"/>
</g>
<defs>
<clipPath id="clip0_189_297">
<rect width="25" height="30" fill="white"/>
</clipPath>
</defs>
</svg>
